<svg id="visual" viewBox="0 0 1920 800" width="1920" height="800" xmlns="http://www.w3.org/2000/svg" xmlns:xlink="http://www.w3.org/1999/xlink" version="1.1"><rect x="0" y="0" width="1920" height="800" fill="#002233"></rect><path d="M0 743L18.8 741.7C37.7 740.3 75.3 737.7 113 739.5C150.7 741.3 188.3 747.7 226 757.2C263.7 766.7 301.3 779.3 339 778.5C376.7 777.7 414.3 763.3 452 759.8C489.7 756.3 527.3 763.7 565 763.2C602.7 762.7 640.3 754.3 678 755.5C715.7 756.7 753.3 767.3 791 769.7C828.7 772 866.3 766 903.8 757.2C941.3 748.3 978.7 736.7 1016.2 730.7C1053.7 724.7 1091.3 724.3 1129 727.5C1166.7 730.7 1204.3 737.3 1242 740.3C1279.7 743.3 1317.3 742.7 1355 747.3C1392.7 752 1430.3 762 1468 763.3C1505.7 764.7 1543.3 757.3 1581 760.8C1618.7 764.3 1656.3 778.7 1694 782.2C1731.7 785.7 1769.3 778.3 1807 778.3C1844.7 778.3 1882.3 785.7 1901.2 789.3L1920 793L1920 801L1901.2 801C1882.3 801 1844.7 801 1807 801C1769.3 801 1731.7 801 1694 801C1656.3 801 1618.7 801 1581 801C1543.3 801 1505.7 801 1468 801C1430.3 801 1392.7 801 1355 801C1317.3 801 1279.7 801 1242 801C1204.3 801 1166.7 801 1129 801C1091.3 801 1053.7 801 1016.2 801C978.7 801 941.3 801 903.8 801C866.3 801 828.7 801 791 801C753.3 801 715.7 801 678 801C640.3 801 602.7 801 565 801C527.3 801 489.7 801 452 801C414.3 801 376.7 801 339 801C301.3 801 263.7 801 226 801C188.3 801 150.7 801 113 801C75.3 801 37.7 801 18.8 801L0 801Z" fill="#ffffff" stroke-linecap="round" stroke-linejoin="miter"></path></svg>